<svg xmlns="http://www.w3.org/2000/svg" viewBox="0 0 25440 3860" width="25440" height="3860">
  <title>DireallisedBlackletter vector glyph source</title>
  <desc>Uppercase A-Z, digits 0-9 and base punctuation exported as vector contours.</desc>
  <rect width="100%" height="100%" fill="#050605" />
  <g fill="#f4f1ea" fill-rule="nonzero">
  <g id="glyph-u0041" data-char="A" transform="translate(519.10 1020.00) scale(0.8200 -0.8200)">
    <path d="M351 52 374 98Q348 71 313.5 49.5Q279 28 273 24L269 28Q297 62 297 118V454L97 337L189 358V138Q189 111 167.5 92.0Q146 73 94 43Q84 37 63.0 24.5Q42 12 25 0L21 4Q49 38 49 94V638Q49 666 73.5 687.5Q98 709 156 743Q183 759 221 784V779Q189 741 189 690V474L369 579L297 557V712L225 784L335 851L421 778L469 808V803Q437 765 437 714V112Q437 75 441.5 50.0Q446 25 462 0L458 -4Q433 1 404.0 16.0Q375 31 351 52Z" />
  </g>
  <g id="glyph-u0042" data-char="B" transform="translate(1486.89 1020.00) scale(0.8200 -0.8200)">
    <path d="M167 -96Q187 -48 224 6Q181 32 136.5 65.5Q92 99 76 130Q78 120 86.5 106.5Q95 93 102 86Q95 82 74.5 69.5Q54 57 38 46L34 50Q62 85 62 143V699Q62 749 53.0 784.0Q44 819 20 846L24 850Q49 842 83.0 826.5Q117 811 145 794L164 806Q223 843 234 850V846Q202 806 202 754V728L307 889L306 850Q357 819 402.0 777.5Q447 736 447 706V609Q447 593 427.5 570.0Q408 547 366 509L290 440L338 469L427 408Q451 392 451 354V118Q380 92 297.0 30.5Q214 -31 171 -100ZM307 507V667Q307 685 293.0 701.0Q279 717 252 736L276 790L202 685V406ZM360 178 311 142V298Q311 311 308.5 318.5Q306 326 298 332L228 383L202 359V117Q202 86 210.0 59.0Q218 32 230 14Q274 79 360 178Z" />
  </g>
  <g id="glyph-u0043" data-char="C" transform="translate(2473.54 1020.00) scale(0.8200 -0.8200)">
    <path d="M75 109Q55 123 42 136Q23 126 -4 109L-8 112Q20 146 20 198V715Q20 741 44.0 760.5Q68 780 125 813Q171 839 192 853V849Q164 816 160 775L252 850L386 666Q363 638 349.5 612.5Q336 587 321 550Q306 511 292 485L288 488Q288 536 267.5 592.0Q247 648 178 747L95 691L160 723V241L101 268L276 140L331 217L356 199L227 0Z" />
  </g>
  <g id="glyph-u0044" data-char="D" transform="translate(3407.30 1020.00) scale(0.8200 -0.8200)">
    <path d="M205 -95Q204 -46 230 3Q190 26 142.0 62.0Q94 98 77 130Q79 120 87.5 106.5Q96 93 103 86Q96 82 75.5 69.5Q55 57 39 46L35 50Q63 85 63 143V699Q63 749 54.0 784.0Q45 819 21 846L25 850Q50 842 84.0 826.5Q118 811 146 794L165 806Q224 843 235 850V846Q203 806 203 754V709L307 895V838L418 764Q433 754 440.5 738.0Q448 722 448 704V105Q402 88 350.0 56.0Q298 24 258.0 -17.0Q218 -58 209 -99ZM308 112V640Q308 673 295 682L254 711L277 784L203 655V117Q203 83 212.0 55.5Q221 28 233 10Q247 37 263.5 58.0Q280 79 308 112Z" />
  </g>
  <g id="glyph-u0045" data-char="E" transform="translate(4393.54 1020.00) scale(0.8200 -0.8200)">
    <path d="M75 109Q55 123 42 136Q23 126 -4 109L-8 112Q20 146 20 198V715Q20 741 44.0 760.5Q68 780 125 813Q171 839 192 853V849Q164 816 160 775L252 850L386 666Q363 638 349.5 612.5Q336 587 321 550Q306 511 292 485L288 488Q288 536 267.5 592.0Q247 648 178 747L95 691L160 723V483Q192 482 215.0 478.5Q238 475 269 468V460Q240 460 209.0 443.0Q178 426 160 400V241L101 268L276 140L331 217L356 199L227 0Z" />
  </g>
  <g id="glyph-u0046" data-char="F" transform="translate(5335.09 1020.00) scale(0.8200 -0.8200)">
    <path d="M20 -100Q56 -7 56 71V748Q56 803 24 845V850Q42 837 88 807L127 781L298 866L389 769Q400 757 412.5 753.0Q425 749 431 752V749L319 654L213 791Q202 783 199.0 774.0Q196 765 196 749V596Q224 596 243.5 592.5Q263 589 288 581V573Q270 573 239.0 551.5Q208 530 181.5 495.5Q155 461 147 422Q167 465 196 490V102Q196 40 224 4L220 0Q213 5 204.5 10.5Q196 16 187 22Q180 27 158.0 41.0Q136 55 121 68L152 36Q105 -4 78.0 -31.5Q51 -59 24 -104Z" />
  </g>
  <g id="glyph-u0047" data-char="G" transform="translate(6305.75 1020.00) scale(0.8200 -0.8200)">
    <path d="M170 -80Q170 -50 178 -18Q162 3 116 47Q65 98 53 112L27 96L-4 77L-8 81Q20 113 20 169V700Q20 727 44.0 747.5Q68 768 127 803Q160 821 192 842V838Q176 819 168.0 798.0Q160 777 160 750V695L260 894V837L292 819Q343 791 372.0 765.5Q401 740 401 703V651Q401 621 373.5 594.5Q346 568 294 533Q254 505 241 493L237 497Q261 533 261 580V654Q261 673 246.5 688.5Q232 704 204 725L108 534L160 606V178Q200 129 224 103L191 49L265 129V314Q265 353 259.0 381.5Q253 410 228 438L233 453Q313 419 405 371V114Q375 106 322.5 74.0Q270 42 226.5 -1.0Q183 -44 174 -84Z" />
  </g>
  <g id="glyph-u0048" data-char="H" transform="translate(7231.31 1020.00) scale(0.8200 -0.8200)">
    <path d="M215 -103Q225 -7 318 104V465L113 346L192 373V170Q192 124 158 98L28 0L24 4Q52 42 52 104V174L28 160L24 163Q52 194 52 243V762Q52 819 20 862L24 866Q66 830 122 795L158 814Q169 820 189.0 830.5Q209 841 224 850V846Q192 812 192 767V475L414 603L318 565V754Q318 782 310.0 803.5Q302 825 286 845V850L341 814Q368 799 374 794Q416 822 442.0 845.5Q468 869 485 905L489 901Q458 832 458 751V144Q458 87 486 52L482 48Q478 51 419 88Q412 93 398 101Q238 -19 219 -107Z" />
  </g>
  <g id="glyph-u0049" data-char="I" transform="translate(8301.19 1020.00) scale(0.8200 -0.8200)">
    <path d="M23 4 97 134 51 89V748Q51 805 20 845V850Q44 832 89 802L117 784L163 815Q205 843 221 855V850L133 719L189 772V102Q189 41 216 4L212 0Q203 7 138 51L120 62L102 50Q61 24 27 0Z" />
  </g>
  <g id="glyph-u004A" data-char="J" transform="translate(9259.96 1020.00) scale(0.8200 -0.8200)">
    <path d="M-40 -60 -27 -44Q21 19 57.5 73.0Q94 127 123 193L52 106V660Q52 695 74.0 726.5Q96 758 128.0 784.0Q160 810 224 857V852Q206 828 180.0 779.0Q154 730 143 694L192 765V130Q150 81 114.5 51.0Q79 21 19 -24Q-9 -43 -36 -64Z" />
  </g>
  <g id="glyph-u004B" data-char="K" transform="translate(10117.87 1020.00) scale(0.8200 -0.8200)">
    <path d="M398 -17Q393 -14 361.0 4.5Q329 23 305 30V290Q305 305 301.5 316.5Q298 328 285 337L232 375L203 336V117Q203 80 214.0 49.5Q225 19 238 4L234 0Q193 25 156.5 50.0Q120 75 93 106L39 73L35 77Q63 111 63 166V699Q63 749 54.0 784.0Q45 819 21 846L25 850Q51 842 84.0 827.0Q117 812 144 795Q158 803 165 808Q195 824 235 850V846Q220 819 211.5 796.5Q203 774 203 745V413L148 305L302 521V690Q302 720 310.5 738.5Q319 757 333.0 768.5Q347 780 374 795Q402 811 424.0 827.0Q446 843 469 866L473 862Q441 819 441 755V621L262 417L331 470Q387 437 416.0 412.5Q445 388 445 354V35Q445 4 465.0 -21.0Q485 -46 509 -60L505 -64Q488 -64 463.0 -52.0Q438 -40 398 -17Z" />
  </g>
  <g id="glyph-u004C" data-char="L" transform="translate(11188.16 1020.00) scale(0.8200 -0.8200)">
    <path d="M223 -90Q165 -37 115.5 -7.0Q66 23 5 23L2 29Q6 32 11.5 35.0Q17 38 22 41Q62 64 88.5 81.5Q115 99 134 120L60 79V701Q81 724 116 774Q146 817 173.0 849.5Q200 882 232 908V903Q218 885 193.5 832.5Q169 780 147 729L200 808V176Q200 141 174.0 108.5Q148 76 112 56Q160 52 196.0 35.0Q232 18 287 -18Q292 -21 327.5 -44.0Q363 -67 406 -88Q420 -94 431 -94Q443 -94 461 -87L463 -89Q442 -112 399.0 -129.5Q356 -147 321 -147Q303 -147 291 -141Q280 -136 264.5 -124.0Q249 -112 238.5 -103.0Q228 -94 223 -90Z" />
  </g>
  <g id="glyph-u004D" data-char="M" transform="translate(11934.55 1020.00) scale(0.8200 -0.8200)">
    <path d="M308 149V620L268 678L150 374L203 465V117Q203 80 214.0 49.5Q225 19 238 4L234 0Q148 51 107 91Q107 96 116.0 108.0Q125 120 132 127Q116 118 76 91Q45 70 39 67L35 70Q63 101 63 152V699Q63 749 54.0 784.0Q45 819 21 846L25 850Q71 835 123.0 807.0Q175 779 194 752L235 775V771Q203 736 203 690V569L309 850L449 710V570L555 850L695 710L694 86Q694 30 726 -13V-18Q635 48 594.5 84.5Q554 121 554 149V620L522 663L541 741L410 401L449 460L448 86Q448 30 480 -13V-18Q389 48 348.5 84.5Q308 121 308 149Z" />
  </g>
  <g id="glyph-u004E" data-char="N" transform="translate(12995.00 1020.00) scale(0.8200 -0.8200)">
    <path d="M308 159V641L266 689L289 765L124 496L203 598V117Q203 80 214.0 49.5Q225 19 238 4L234 0Q145 52 101 97L120 139Q102 120 39 83L35 86Q63 117 63 168V699Q63 749 54.0 784.0Q45 819 21 846L25 850Q65 838 113.0 813.0Q161 788 185 763Q201 771 235 791V787Q203 752 203 706V670L309 850L449 710L448 86Q448 30 480 -13V-18Q400 40 354.0 85.0Q308 130 308 159Z" />
  </g>
  <g id="glyph-u004F" data-char="O" transform="translate(13985.75 1020.00) scale(0.8200 -0.8200)">
    <path d="M80 52Q59 64 42.0 83.0Q25 102 21 129L-5 114L-9 117Q19 148 19 199V690Q19 715 43.5 734.0Q68 753 126 785Q170 809 191 822V818Q174 799 147 757Q160 755 160 745V191Q160 168 179 152L230 111L352 271L265 187V670Q265 680 261.0 690.0Q257 700 250 706L193 752L264 853L371 782Q387 772 396.0 754.5Q405 737 405 719V217L265 47V106L188 -7Z" />
  </g>
  <g id="glyph-u0050" data-char="P" transform="translate(14932.63 1020.00) scale(0.8200 -0.8200)">
    <path d="M20 -81Q35 -61 43.5 -18.5Q52 24 52 68V695Q52 741 20 776V780Q63 755 79 747Q97 763 141 789Q200 827 224 845V840Q192 797 192 741V725L166 643L296 902Q296 862 320.0 833.0Q344 804 387 769Q414 747 425.5 735.0Q437 723 437 711V436Q437 401 361.5 340.0Q286 279 218 240L214 244Q238 269 267.5 317.5Q297 366 297 400V662Q297 671 292.0 681.5Q287 692 279 699L240 733L127 509L192 600V157Q192 106 220 75L216 72L191 87Q155 71 129.5 45.5Q104 20 65 -32L24 -85Z" />
  </g>
  <g id="glyph-u0051" data-char="Q" transform="translate(15899.60 1020.00) scale(0.8200 -0.8200)">
    <path d="M375 10Q343 32 322.5 42.0Q302 52 280 52V128L188 -15L161 0L136 15Q83 46 53.0 71.0Q23 96 20 128Q12 124 -4 114L-8 117Q20 148 20 199V690Q20 715 44.5 734.0Q69 753 127 785Q171 809 192 822V818Q160 783 160 737V183Q160 162 177.5 144.5Q195 127 230 103L332 258L280 211V670Q280 691 263.0 708.0Q246 725 208 752L279 853Q285 849 291.5 845.5Q298 842 303 839Q357 808 388.5 780.5Q420 753 420 719V124Q420 83 441.0 42.0Q462 1 493.0 -25.0Q524 -51 553 -51L551 -55Q500 -55 461.5 -38.0Q423 -21 375 10Z" />
  </g>
  <g id="glyph-u0052" data-char="R" transform="translate(16839.51 1020.00) scale(0.8200 -0.8200)">
    <path d="M81 121 39 97 35 100Q63 131 63 182V699Q63 749 54.0 784.0Q45 819 21 846L25 850Q61 839 105.0 816.5Q149 794 176 771Q183 775 235 805V801Q203 766 203 720V713L300 866V838Q359 800 400.0 764.5Q441 729 441 690V521Q332 469 280 436Q339 412 392.0 378.5Q445 345 445 315V106Q445 27 469 4L465 0Q408 29 356.5 75.0Q305 121 305 156V361Q305 391 246 412Q233 402 192.5 358.5Q152 315 145 304L203 346V117Q203 80 214.0 49.5Q225 19 238 4L234 0Q118 69 81 121ZM271 459Q299 479 301 481V654Q301 673 286.5 688.5Q272 704 244 725L140 577L203 640V407Q217 423 271 459Z" />
  </g>
  <g id="glyph-u0053" data-char="S" transform="translate(17808.53 1020.00) scale(0.8200 -0.8200)">
    <path d="M87 123Q43 211 -18 211Q-36 211 -59 201L-63 206Q-40 229 13.0 251.0Q66 273 106 273Q141 273 153 255L256 76Q264 82 270.5 98.5Q277 115 277 131V440L334 481L106 401Q97 398 89 398Q70 398 59.5 412.0Q49 426 49 442V708Q49 734 59.5 751.5Q70 769 86.5 781.0Q103 793 136 812Q184 840 218 866L222 862Q217 855 207.5 842.0Q198 829 194.0 816.0Q190 803 190 782V757L220 784Q250 810 267.5 827.5Q285 845 298 866L447 695Q425 670 414.0 652.0Q403 634 390 606Q374 571 364 555L360 558Q362 568 362 574Q362 598 352.5 615.0Q343 632 330 649L232 767Q210 752 190 728V486L113 432L371 523Q379 525 383 525Q397 525 407.5 515.5Q418 506 418 497V135Q395 135 345.5 109.5Q296 84 248.0 44.5Q200 5 178 -35Z" />
  </g>
  <g id="glyph-u0054" data-char="T" transform="translate(18754.59 1020.00) scale(0.8200 -0.8200)">
    <path d="M188 109V660Q188 713 156.0 755.0Q124 797 85.0 822.5Q46 848 20 857L24 861Q43 858 66.5 850.5Q90 843 99 840Q145 825 177.5 817.0Q210 809 245 809Q289 809 354.5 831.5Q420 854 477 883L481 878Q447 859 389.0 793.0Q331 727 279 647L328 688V109Q303 54 291.5 18.5Q280 -17 280 -47Q280 -84 299 -122L295 -126Q188 20 188 109Z" />
  </g>
  <g id="glyph-u0055" data-char="U" transform="translate(19719.51 1020.00) scale(0.8200 -0.8200)">
    <path d="M297 172 296 261 191 0 60 132Q47 126 28 114L24 117Q52 148 52 199V764Q52 820 20 863V868Q95 834 149 780Q184 798 224 822V818Q192 773 192 711V209L215 184L197 88L364 489L297 383V713Q297 737 325.0 762.0Q353 787 421 836Q418 834 469 870V865Q437 822 437 766V102Q437 41 465 3V-2Q386 56 341.5 99.5Q297 143 297 172Z" />
  </g>
  <g id="glyph-u0056" data-char="V" transform="translate(20692.63 1020.00) scale(0.8200 -0.8200)">
    <path d="M44 217 -4 190 -8 193Q20 224 20 272V749Q20 773 45.0 792.0Q70 811 130 843L192 876V873Q180 859 157.0 826.0Q134 793 114 759Q122 762 128 762L160 804V316Q160 277 185.5 228.5Q211 180 242 145L265 66V689Q265 715 282.0 733.5Q299 752 338 780Q368 802 389.5 819.0Q411 836 433 860L437 856Q405 813 405 757V242L417 230L265 -10Q199 37 137.0 98.5Q75 160 44 217Z" />
  </g>
  <g id="glyph-u0057" data-char="W" transform="translate(21537.01 1020.00) scale(0.8200 -0.8200)">
    <path d="M70 115 22 88 18 91Q46 122 46 173V764Q46 820 14 863V868Q55 838 93.0 809.0Q131 780 152 759Q206 789 218 796V792Q186 756 186 722V230L205 206L186 85L291 342V764Q292 819 260 863V868Q351 802 391.5 765.5Q432 729 432 701V230L472 172L592 483L537 402V733Q537 770 526.0 800.5Q515 831 502 846L506 850Q600 795 642 750Q672 765 701 783L705 780Q677 749 677 698V151Q677 102 686.0 66.5Q695 31 719 4L715 0Q669 15 617.0 43.0Q565 71 546 98L505 75V79Q537 114 537 160V281L431 0L291 140V215L330 353L185 0Z" />
  </g>
  <g id="glyph-u0058" data-char="X" transform="translate(22597.05 1020.00) scale(0.8200 -0.8200)">
    <path d="M55 167V268L227 412L84 509Q68 520 61.5 534.5Q55 549 55 571V733Q55 770 44.0 800.5Q33 831 20 846L24 850Q88 812 141.0 769.5Q194 727 195 683V522L115 550L269 448L355 528L300 499V733Q300 770 289.0 800.5Q278 831 265 846L269 850Q333 812 386.0 769.5Q439 727 440 683V547L299 428L412 354Q423 346 431.5 331.5Q440 317 440 304V117Q440 80 451.0 49.5Q462 19 475 4L471 0Q407 38 354.0 80.5Q301 123 300 167V331L370 316L257 392L138 292L195 318V117Q195 80 206.0 49.5Q217 19 230 4L226 0Q162 38 109.0 80.5Q56 123 55 167Z" />
  </g>
  <g id="glyph-u0059" data-char="Y" transform="translate(23566.07 1020.00) scale(0.8200 -0.8200)">
    <path d="M48 100Q86 142 106.0 167.5Q126 193 150 233L154 230Q149 215 149 202Q149 150 209 79L218 69Q243 87 262.0 114.0Q281 141 281 169V474L191 290L35 385L36 762Q36 819 4 862L8 866Q92 804 134.0 763.0Q176 722 176 686V454L223 421L343 674L281 583V713Q281 759 249 794V798Q289 774 319 759Q359 801 449 866L453 862Q437 841 429.0 817.5Q421 794 421 764V175Q421 124 449 93L445 90Q431 98 424 101Q378 125 352.5 145.5Q327 166 311 202L335 130Q285 93 229.0 44.0Q173 -5 138 -39Z" />
  </g>
  <g id="glyph-u005A" data-char="Z" transform="translate(24529.35 1020.00) scale(0.8200 -0.8200)">
    <path d="M64 -20Q65 10 60.0 36.0Q55 62 44 94Q35 121 31.0 139.5Q27 158 27 178Q27 222 51 267L278 699L359 686L196 763Q171 723 146.5 656.5Q122 590 122 551Q122 538 125 530L121 527Q108 549 84 610Q67 656 53.0 685.5Q39 715 20 736L88 858Q230 800 316 769Q343 817 355.0 845.5Q367 874 375 912L379 910Q377 873 386.0 846.5Q395 820 412 787Q423 765 428.5 751.0Q434 737 434 721Q434 704 427 687L143 131L78 135L235 71Q241 97 285 171Q325 240 345.5 285.0Q366 330 362 366L366 369Q387 294 404.0 256.5Q421 219 445 192Q429 176 405.5 144.0Q382 112 364.0 73.0Q346 34 346 0L113 77Q110 70 94.5 39.5Q79 9 70 -21Z" />
  </g>
  <g id="glyph-u0030" data-char="0" transform="translate(457.60 2200.00) scale(0.8200 -0.8200)">
    <path d="M20 405Q20 532 86.5 651.0Q153 770 281 850Q351 843 431.0 791.0Q511 739 565.5 653.0Q620 567 620 464Q620 349 571.0 255.0Q522 161 453.0 97.5Q384 34 318 0Q223 29 156.0 90.5Q89 152 54.5 233.5Q20 315 20 405ZM496 338Q496 428 461.0 510.5Q426 593 372.5 653.5Q319 714 264 741Q267 777 279 806Q229 742 188.0 655.0Q147 568 147 506Q147 392 208.0 290.0Q269 188 381 127Q373 85 348 46Q381 79 415.5 133.5Q450 188 473.0 244.0Q496 300 496 338Z" />
  </g>
  <g id="glyph-u0031" data-char="1" transform="translate(1509.85 2200.00) scale(0.8200 -0.8200)">
    <path d="M156 57Q122 93 101 114Q121 124 129.5 139.0Q138 154 138 195V660Q138 708 119.5 728.0Q101 748 67 750L37 721L20 731L140 850Q140 853 176.0 841.5Q212 830 241.0 805.0Q270 780 270 739V149L204 97L280 131L319 90L376 115L395 86L211 0Q190 21 156 57Z" />
  </g>
  <g id="glyph-u0032" data-char="2" transform="translate(2396.05 2200.00) scale(0.8200 -0.8200)">
    <path d="M24 9H23L24 10Q36 40 60.5 78.0Q85 116 129 177Q207 287 258.5 372.0Q310 457 348.5 562.5Q387 668 387 775L192 603L114 714L330 862L539 764Q539 567 429.5 407.5Q320 248 154 112Q206 134 267 153Q334 175 396 175Q450 175 489.5 160.5Q529 146 552.0 129.0Q575 112 575 109L479 0Q479 2 443.0 16.5Q407 31 353.5 43.0Q300 55 240 55Q122 55 20 0Q22 6 24 9Z" />
  </g>
  <g id="glyph-u0033" data-char="3" transform="translate(3354.41 2200.00) scale(0.8200 -0.8200)">
    <path d="M20 180 108 277 342 82Q321 56 291 39Q351 59 373.0 97.0Q395 135 395 172Q395 222 364.5 271.0Q334 320 280.0 354.5Q226 389 158 399V456Q258 510 309.0 578.5Q360 647 386 743L283 803L320 762L206 623L79 674L238 850L543 713Q523 627 465.5 554.5Q408 482 319 443Q403 435 469.5 391.0Q536 347 536 250Q536 159 453.0 94.0Q370 29 244 0Z" />
  </g>
  <g id="glyph-u0034" data-char="4" transform="translate(4308.67 2200.00) scale(0.8200 -0.8200)">
    <path d="M331 121V253H124L20 405L351 850Q381 850 409.0 836.5Q437 823 454.0 799.5Q471 776 471 747V393H507L593 253H404L471 229V158Q471 128 490.0 109.0Q509 90 536 90Q547 90 557 93L568 76L459 0Q413 13 372.0 45.0Q331 77 331 121ZM331 418V712L366 789L69 395L411 394Z" />
  </g>
  <g id="glyph-u0035" data-char="5" transform="translate(5283.02 2200.00) scale(0.8200 -0.8200)">
    <path d="M20 128 135 263 335 98Q324 75 299 48Q348 82 374.0 138.0Q400 194 400 258Q400 334 364.5 399.0Q329 464 266 494Q267 504 284.0 531.0Q301 558 315 575L109 420L52 459L94 850H489L453 710H139L111 458L319 613Q350 613 400.0 584.5Q450 556 488.5 496.0Q527 436 527 346Q527 213 463.0 136.0Q399 59 326.5 29.5Q254 0 222 0Z" />
  </g>
  <g id="glyph-u0036" data-char="6" transform="translate(6234.00 2200.00) scale(0.8200 -0.8200)">
    <path d="M20 393Q20 513 83.0 615.0Q146 717 224.5 787.5Q303 858 303 850L503 753L423 630L229 731Q190 674 170.5 609.5Q151 545 151 480Q151 445 157 410L419 579Q477 549 528.5 490.5Q580 432 580 350Q580 263 537.5 189.5Q495 116 441.5 68.5Q388 21 349 0Q300 10 222.5 54.5Q145 99 82.5 184.5Q20 270 20 393ZM428 247Q428 330 395.5 387.5Q363 445 324 479L80 329L168 360Q193 271 252.0 201.0Q311 131 397 94Q428 172 428 247Z" />
  </g>
  <g id="glyph-u0037" data-char="7" transform="translate(7222.70 2200.00) scale(0.8200 -0.8200)">
    <path d="M432 776 338 710H137Q66 710 24 652L20 655L95 850H502L510 833Q382 651 314.5 512.5Q247 374 222.5 256.5Q198 139 198 0H38Q38 128 99.5 274.5Q161 421 251.5 551.5Q342 682 432 776Z" />
  </g>
  <g id="glyph-u0038" data-char="8" transform="translate(8164.25 2200.00) scale(0.8200 -0.8200)">
    <path d="M20 198Q21 241 55.5 294.5Q90 348 141.0 397.5Q192 447 242 481L163 440Q108 461 86.0 492.5Q64 524 66 571Q67 646 120.0 725.0Q173 804 218 851Q346 849 437.5 817.5Q529 786 529 687Q529 648 467.0 576.0Q405 504 342 447L410 489Q487 449 521.0 401.5Q555 354 555 287Q555 211 517.0 145.0Q479 79 410.5 39.5Q342 0 256 0Q139 0 78.5 54.0Q18 108 20 198ZM424 609Q424 639 394.0 657.0Q364 675 309.0 686.0Q254 697 161 708Q135 665 135 640Q135 595 207 571Q305 539 369 509Q424 544 424 609ZM514 276Q514 322 445.5 357.0Q377 392 254 415Q235 418 221 422Q137 367 137 277Q137 214 190.5 179.5Q244 145 318 145Q367 145 412.0 161.5Q457 178 485.5 208.0Q514 238 514 276Z" />
  </g>
  <g id="glyph-u0039" data-char="9" transform="translate(9108.67 2200.00) scale(0.8200 -0.8200)">
    <path d="M52 107 135 232 383 100Q416 140 435.5 203.0Q455 266 455 335Q455 402 444 461L198 265Q198 261 148.5 299.0Q99 337 59.5 394.0Q20 451 20 521Q20 598 64.0 673.5Q108 749 164.0 799.5Q220 850 247 850Q315 850 394.5 816.5Q474 783 533.5 697.0Q593 611 593 467Q593 324 528.5 219.5Q464 115 390.0 58.5Q316 2 275 -14ZM529 568 429 527Q399 613 332.0 676.0Q265 739 153 753Q141 714 141 659Q141 574 174.0 498.5Q207 423 282 390Z" />
  </g>
  <g id="glyph-u002E" data-char="." transform="translate(606.43 3380.00) scale(0.8200 -0.8200)">
    <path d="M50 107 139 197 227 109 137 20Z" />
  </g>
  <g id="glyph-u002C" data-char="," transform="translate(1602.51 3380.00) scale(0.8200 -0.8200)">
    <path d="M73 -127V-57Q73 -45 61.5 -32.0Q50 -19 30 0L90 60L149 0Q123 -32 106.5 -61.5Q90 -91 77 -131Z" />
  </g>
  <g id="glyph-u003A" data-char=":" transform="translate(2526.43 3380.00) scale(0.8200 -0.8200)">
    <path d="M50 452 139 542 227 454 137 365ZM50 107 139 197 227 109 137 20Z" />
  </g>
  <g id="glyph-u003B" data-char=";" transform="translate(3486.43 3380.00) scale(0.8200 -0.8200)">
    <path d="M50 452 139 542 227 454 137 365ZM50 107 139 197 227 109 137 -53Z" />
  </g>
  <g id="glyph-u0021" data-char="!" transform="translate(4446.43 3380.00) scale(0.8200 -0.8200)">
    <path d="M56 374V851L196 751V268ZM50 107 139 197 227 109 137 20Z" />
  </g>
  <g id="glyph-u003F" data-char="?" transform="translate(5345.75 3380.00) scale(0.8200 -0.8200)">
    <path d="M163 340 342 530 265 481V652Q265 686 254 698L182 780Q160 760 160 742V630Q160 599 170 586L185 565L80 491Q58 509 39.0 533.5Q20 558 20 574V687Q20 705 33.0 724.5Q46 744 69 755L291 850L383 768Q405 748 405 719V416L247 250ZM158 107 247 197 335 109 245 20Z" />
  </g>
  <g id="glyph-u0026" data-char="&amp;" transform="translate(6268.44 3380.00) scale(0.8200 -0.8200)">
    <path d="M275 -94Q295 -51 295 -5V128L218 -15L110 44Q87 57 68.5 80.0Q50 103 50 134V348Q50 371 76.5 397.5Q103 424 159 464L110 491Q87 504 68.5 527.0Q50 550 50 581V666Q50 696 95.0 744.0Q140 792 214 846L218 842Q190 804 190 742V630Q190 607 209 591L244 563L200 507L295 586V652Q295 663 290.5 680.0Q286 697 280 703L227 751L321 850L401 779Q416 766 425.5 743.0Q435 720 435 701V656L210 459Q198 443 194.0 431.0Q190 419 190 394V183Q190 160 209 144L260 103L348 245L295 213V390Q295 419 321.5 447.0Q348 475 401 517Q450 558 462 569L466 565Q454 538 444.5 486.0Q435 434 435 399V171Q435 121 405.5 72.5Q376 24 324 -40Q292 -79 279 -98Z" />
  </g>
  <g id="glyph-u002F" data-char="/" transform="translate(7266.57 3380.00) scale(0.8200 -0.8200)">
    <path d="M288 850H403L125 0H10Z" />
  </g>
  <g id="glyph-u002B" data-char="+" transform="translate(8218.37 3380.00) scale(0.8200 -0.8200)">
    <path d="M165 321V364L219 386H26L97 491H165V630L270 559V515L214 491H410L335 386H270V246Z" />
  </g>
  <g id="glyph-u002D" data-char="-" transform="translate(9149.26 3380.00) scale(0.8200 -0.8200)">
    <path d="M50 250 151 375H395L368 338L447 385L460 399L464 395L369 270H93Q78 270 70 262L54 246Z" />
  </g>
  <g id="glyph-u002A" data-char="*" transform="translate(10174.04 3380.00) scale(0.8200 -0.8200)">
    <path d="M169 411 158 454Q154 470 141.0 480.0Q128 490 112 490Q108 490 100 488L49 475H47Q39 475 39 482Q39 485 42 488L82 527Q96 540 96 561Q96 582 82 595L42 634Q39 637 39 640Q39 643 42.0 645.0Q45 647 49 646L99 633Q107 631 112 631Q128 631 141.0 641.0Q154 651 158 667L169 711Q171 717 178 717Q185 717 186 711L198 667Q202 651 214.5 641.0Q227 631 243 631Q248 631 256 633L306 646H308Q312 646 314.0 644.0Q316 642 316 640Q316 637 313 634L273 595Q259 581 259 561Q259 541 273 527L313 488Q317 484 317 481Q317 477 314.0 475.5Q311 474 306 475L256 488Q248 490 243 490Q227 490 214.0 480.0Q201 470 197 454L186 411Q185 404 177 404Q170 404 169 411Z" />
  </g>
  <g id="glyph-u0027" data-char="'" transform="translate(11219.32 3380.00) scale(0.8200 -0.8200)">
    <path d="M49 785 102 858 157 785 104 658Z" />
  </g>
  <g id="glyph-u0022" data-char=""" transform="translate(12107.16 3380.00) scale(0.8200 -0.8200)">
    <path d="M177 788 230 861 285 788 232 661ZM50 785 103 858 158 785 105 658Z" />
  </g>
  <g id="glyph-u0028" data-char="(" transform="translate(13111.85 3380.00) scale(0.8200 -0.8200)">
    <path d="M20 160V699Q21 743 74.0 785.5Q127 828 191 866L195 862Q182 847 171.0 816.5Q160 786 160 749V110Q160 73 171.0 42.5Q182 12 195 -3L191 -7Q127 31 74.0 73.5Q21 116 20 160Z" />
  </g>
  <g id="glyph-u0029" data-char=")" transform="translate(14071.85 3380.00) scale(0.8200 -0.8200)">
    <path d="M20 -3Q33 12 44.0 42.5Q55 73 55 110V749Q55 786 44.0 816.5Q33 847 20 862L24 866Q88 828 141.0 785.5Q194 743 195 699V160Q194 116 141.0 73.5Q88 31 24 -7Z" />
  </g>
  <g id="glyph-u005B" data-char="[" transform="translate(15028.57 3380.00) scale(0.8200 -0.8200)">
    <path d="M20 92V767L128 866L203 762L98 647L160 683V171L105 204L203 97L128 -7Z" />
  </g>
  <g id="glyph-u005D" data-char="]" transform="translate(15988.57 3380.00) scale(0.8200 -0.8200)">
    <path d="M20 97 118 204 63 171V683L125 647L20 762L95 866L203 767V92L95 -7Z" />
  </g>
  </g>
</svg>
